<svg width="25.000000" height="25.000000" viewBox="0 0 25 25" fill="none" xmlns="http://www.w3.org/2000/svg" xmlns:xlink="http://www.w3.org/1999/xlink">
	<desc>
			Created with Pixso.
	</desc>
	<defs>
		<clipPath id="clip2_749">
			<rect id="60e492eacfc3164a4a0c3de0_icon-cart-market-template.svg" rx="0.000000" width="24.137932" height="24.137932" transform="translate(0.431035 0.431035)" fill="white" fill-opacity="0"/>
		</clipPath>
	</defs>
	<g clip-path="url(#clip2_749)">
		<path id="Vector" d="M6.12 20.58L16.45 20.58C16.82 20.58 17.17 20.45 17.45 20.21C17.74 19.97 17.92 19.64 17.99 19.28L20.73 3.15C20.79 2.79 20.98 2.46 21.26 2.22C21.54 1.98 21.9 1.85 22.27 1.85L23.29 1.85" stroke="#26395C" stroke-opacity="1.000000" stroke-width="2.081241" stroke-linejoin="round" stroke-linecap="round"/>
		<path id="Vector" d="M8.29 22.99C8.35 23.03 8.41 23.09 8.43 23.16C8.46 23.23 8.47 23.31 8.46 23.39C8.44 23.46 8.4 23.53 8.35 23.59C8.29 23.64 8.23 23.68 8.15 23.69C8.07 23.71 8 23.7 7.92 23.67C7.85 23.64 7.79 23.59 7.75 23.53C7.71 23.46 7.68 23.39 7.68 23.31C7.68 23.21 7.72 23.11 7.8 23.04C7.87 22.96 7.97 22.92 8.07 22.92C8.15 22.92 8.23 22.94 8.29 22.99Z" stroke="#26395C" stroke-opacity="1.000000" stroke-width="2.081241" stroke-linejoin="round"/>
		<path id="Vector" d="M16.1 22.99C16.16 23.03 16.21 23.09 16.24 23.16C16.27 23.23 16.28 23.31 16.26 23.39C16.25 23.46 16.21 23.53 16.16 23.59C16.1 23.64 16.03 23.68 15.96 23.69C15.88 23.71 15.8 23.7 15.73 23.67C15.66 23.64 15.6 23.59 15.55 23.53C15.51 23.46 15.49 23.39 15.49 23.31C15.49 23.21 15.53 23.11 15.6 23.04C15.68 22.96 15.78 22.92 15.88 22.92C15.96 22.92 16.03 22.94 16.1 22.99Z" stroke="#26395C" stroke-opacity="1.000000" stroke-width="2.081241" stroke-linejoin="round"/>
		<path id="Vector" d="M18.56 15.9L6 15.9C5.3 15.9 4.63 15.66 4.08 15.24C3.53 14.81 3.14 14.21 2.97 13.53L1.46 7.5C1.43 7.38 1.43 7.26 1.46 7.15C1.48 7.03 1.53 6.92 1.6 6.83C1.68 6.73 1.77 6.66 1.88 6.61C1.98 6.55 2.1 6.53 2.22 6.53L20.15 6.53" stroke="#26395C" stroke-opacity="1.000000" stroke-width="2.081241" stroke-linejoin="round" stroke-linecap="round"/>
		<path id="Vector" d="M8.99 23.31C8.99 23.79 8.6 24.18 8.13 24.18C7.65 24.18 7.26 23.79 7.26 23.31C7.26 22.83 7.65 22.45 8.13 22.45C8.6 22.45 8.99 22.83 8.99 23.31Z" fill="#262F5C" fill-opacity="1.000000" fill-rule="evenodd"/>
	</g>
</svg>
