<svg width="134.000000" height="37.000000" viewBox="0 0 134 37" fill="none" xmlns="http://www.w3.org/2000/svg" xmlns:xlink="http://www.w3.org/1999/xlink">
	<desc>
			Created with Pixso.
	</desc>
	<defs>
		<clipPath id="clip2_706">
			<rect id="60e492eacfc3165b0e0c3dd6_logo-market-template.svg" rx="0.000000" width="133.000000" height="36.000000" transform="translate(0.500000 0.500000)" fill="white" fill-opacity="0"/>
		</clipPath>
	</defs>
	<g clip-path="url(#clip2_706)">
		<path id="Vector" d="M53.06 28.84L46.36 15.97L46.36 30.22L42.65 30.22L42.65 10.85L47.8 10.85L53.11 21.25L58.43 10.85L63.57 10.85L63.57 30.22L59.78 30.22L59.78 15.99L53.06 28.84ZM71.1 30.47C69.55 30.47 68.29 30.06 67.31 29.25C66.33 28.42 65.84 27.35 65.84 26.04C65.84 24.67 66.37 23.6 67.42 22.83C68.47 22.05 69.92 21.67 71.77 21.67C72.36 21.67 72.95 21.71 73.54 21.81C74.13 21.9 74.71 22.04 75.28 22.22L75.28 21.2C75.28 20.37 75.02 19.74 74.51 19.31C73.99 18.89 73.23 18.68 72.24 18.68C71.63 18.68 70.96 18.78 70.25 18.98C69.54 19.17 68.74 19.46 67.84 19.87L66.45 17.07C67.58 16.56 68.67 16.17 69.72 15.91C70.79 15.65 71.84 15.52 72.87 15.52C74.81 15.52 76.32 15.99 77.39 16.93C78.47 17.86 79.02 19.17 79.02 20.86L79.02 30.22L75.28 30.22L75.28 29.22C74.67 29.65 74.03 29.96 73.34 30.16C72.68 30.37 71.93 30.47 71.1 30.47ZM69.47 25.96C69.47 26.51 69.71 26.95 70.19 27.29C70.67 27.6 71.31 27.76 72.1 27.76C72.73 27.76 73.3 27.68 73.82 27.53C74.35 27.37 74.84 27.14 75.28 26.84L75.28 24.68C74.82 24.5 74.33 24.37 73.82 24.3C73.32 24.2 72.79 24.16 72.24 24.16C71.37 24.16 70.69 24.32 70.19 24.66C69.71 24.97 69.47 25.4 69.47 25.96ZM81.89 30.22L81.89 15.8L85.68 15.8L85.68 17.38C86.14 16.75 86.7 16.28 87.34 15.97C88 15.63 88.73 15.47 89.53 15.47C89.9 15.49 90.2 15.52 90.44 15.58C90.7 15.61 90.92 15.69 91.11 15.8L91.11 19.12C90.83 18.99 90.52 18.9 90.19 18.84C89.86 18.77 89.52 18.73 89.17 18.73C88.43 18.73 87.75 18.92 87.12 19.29C86.51 19.66 86.03 20.19 85.68 20.89L85.68 30.22L81.89 30.22ZM93.16 30.22L93.16 10.85L96.95 10.01L96.95 21.89L103.18 15.8L107.47 15.8L100.72 22.41L107.88 30.22L103.04 30.22L96.95 23.63L96.95 30.22L93.16 30.22ZM120.73 28.42C119.85 29.14 118.93 29.67 117.99 30C117.07 30.33 116.04 30.5 114.89 30.5C113.81 30.5 112.78 30.3 111.82 29.91C110.88 29.53 110.06 29 109.36 28.34C108.68 27.67 108.13 26.89 107.73 25.98C107.34 25.06 107.14 24.07 107.14 23.02C107.14 21.99 107.33 21.02 107.7 20.12C108.09 19.19 108.61 18.4 109.28 17.74C109.94 17.05 110.72 16.52 111.63 16.13C112.55 15.74 113.53 15.55 114.56 15.55C115.58 15.55 116.52 15.75 117.39 16.16C118.27 16.55 119.03 17.08 119.65 17.76C120.3 18.45 120.8 19.27 121.15 20.23C121.52 21.17 121.7 22.19 121.7 23.3L121.7 24.3L110.96 24.3C111.22 25.2 111.72 25.93 112.46 26.48C113.2 27.04 114.06 27.31 115.06 27.31C115.69 27.31 116.28 27.21 116.83 27.01C117.39 26.81 117.86 26.52 118.24 26.15L120.73 28.42ZM114.48 18.68C113.61 18.68 112.86 18.95 112.24 19.48C111.61 20 111.18 20.7 110.94 21.58L117.99 21.58C117.75 20.74 117.31 20.04 116.67 19.51C116.04 18.95 115.31 18.68 114.48 18.68ZM125.45 26.15L125.45 18.98L122.49 18.98L122.49 15.8L125.45 15.8L125.45 12.12L129.24 11.26L129.24 15.8L133.34 15.8L133.34 18.98L129.24 18.98L129.24 25.38C129.24 26.06 129.39 26.54 129.68 26.81C129.98 27.09 130.5 27.23 131.23 27.23C131.59 27.23 131.92 27.21 132.23 27.17C132.54 27.12 132.89 27.03 133.25 26.9L133.25 30C132.85 30.13 132.36 30.23 131.79 30.3C131.22 30.39 130.73 30.44 130.32 30.44C128.72 30.44 127.5 30.08 126.67 29.36C125.86 28.62 125.45 27.55 125.45 26.15Z" fill="#26395C" fill-opacity="1.000000" fill-rule="evenodd"/>
		<path id="Vector" d="M30.52 31.29L29.14 11.41C29.1 10.8 28.83 10.24 28.39 9.82C27.94 9.4 27.36 9.17 26.75 9.17L24.08 9.17C23.97 9.17 23.88 9.13 23.8 9.06C23.73 8.98 23.69 8.89 23.69 8.79L23.69 8.4C23.69 6.17 22.81 4.03 21.23 2.46C19.65 0.88 17.51 0 15.28 0C13.05 0 10.91 0.88 9.34 2.46C7.76 4.03 6.87 6.17 6.87 8.4L6.87 8.79C6.87 8.89 6.83 8.98 6.76 9.06C6.69 9.13 6.59 9.17 6.49 9.17L3.82 9.17C3.21 9.17 2.62 9.4 2.18 9.82C1.74 10.23 1.46 10.8 1.42 11.4L0.05 31.28C0.01 31.81 0 32.34 0 32.87C0 33.37 0.09 33.86 0.29 34.33C0.48 34.79 0.76 35.21 1.11 35.57C1.47 35.92 1.89 36.2 2.35 36.4C2.82 36.59 3.32 36.69 3.82 36.69L26.75 36.69C27.25 36.69 27.75 36.59 28.21 36.4C28.68 36.2 29.1 35.92 29.45 35.57C29.81 35.21 30.09 34.79 30.28 34.33C30.47 33.86 30.57 33.37 30.57 32.87C30.57 32.34 30.55 31.81 30.52 31.29ZM9.17 18.34C9.47 18.34 9.77 18.43 10.02 18.6C10.27 18.77 10.46 19.01 10.58 19.29C10.7 19.56 10.73 19.87 10.67 20.17C10.61 20.47 10.46 20.74 10.25 20.95C10.04 21.17 9.76 21.31 9.47 21.37C9.17 21.43 8.86 21.4 8.58 21.28C8.3 21.17 8.07 20.97 7.9 20.72C7.73 20.47 7.64 20.17 7.64 19.87C7.64 19.46 7.8 19.08 8.09 18.79C8.37 18.5 8.76 18.34 9.17 18.34ZM8.92 25.8C9.05 25.71 9.19 25.66 9.34 25.63C9.48 25.6 9.64 25.6 9.78 25.63C9.93 25.65 10.07 25.71 10.2 25.8C10.32 25.88 10.43 25.99 10.51 26.11C11.04 26.9 11.75 27.54 12.58 27.98C13.41 28.43 14.34 28.66 15.28 28.66C16.23 28.66 17.16 28.43 17.99 27.98C18.82 27.54 19.53 26.9 20.05 26.11C20.22 25.86 20.49 25.69 20.78 25.64C21.08 25.58 21.39 25.64 21.64 25.81C21.89 25.98 22.06 26.24 22.12 26.53C22.18 26.83 22.12 27.14 21.96 27.39C21.22 28.49 20.23 29.39 19.07 30.01C17.9 30.63 16.6 30.96 15.28 30.96C13.96 30.96 12.66 30.63 11.5 30.01C10.33 29.39 9.34 28.49 8.61 27.39C8.52 27.26 8.47 27.12 8.44 26.98C8.41 26.83 8.41 26.68 8.44 26.53C8.46 26.38 8.52 26.24 8.61 26.11C8.69 25.99 8.8 25.88 8.92 25.8ZM21.4 21.4C21.1 21.4 20.8 21.31 20.55 21.14C20.3 20.97 20.1 20.73 19.99 20.46C19.87 20.18 19.84 19.87 19.9 19.57C19.96 19.28 20.1 19 20.32 18.79C20.53 18.58 20.8 18.43 21.1 18.37C21.4 18.31 21.71 18.34 21.98 18.46C22.26 18.57 22.5 18.77 22.67 19.02C22.84 19.27 22.93 19.57 22.93 19.87C22.93 20.28 22.77 20.66 22.48 20.95C22.19 21.24 21.8 21.4 21.4 21.4ZM9.93 8.4C9.93 6.98 10.5 5.62 11.5 4.62C12.5 3.62 13.86 3.05 15.28 3.05C16.7 3.05 18.06 3.62 19.07 4.62C20.07 5.62 20.63 6.98 20.63 8.4L20.63 8.79C20.63 8.89 20.59 8.98 20.52 9.06C20.45 9.13 20.35 9.17 20.25 9.17L10.32 9.17C10.21 9.17 10.12 9.13 10.04 9.06C9.97 8.98 9.93 8.89 9.93 8.79L9.93 8.4Z" fill="#0E8BFF" fill-opacity="1.000000" fill-rule="evenodd"/>
		<path id="Vector" d="M3.71 13.81L25.17 13.81L25.17 34L3.71 34L3.71 13.81Z" fill="#0E8BFF" fill-opacity="1.000000" fill-rule="evenodd"/>
		<path id="Vector" d="M11.34 17.84C11.41 17.89 11.46 17.95 11.49 18.03C11.53 18.11 11.53 18.19 11.52 18.27C11.5 18.35 11.46 18.43 11.4 18.49C11.35 18.54 11.27 18.58 11.19 18.6C11.11 18.62 11.02 18.61 10.95 18.58C10.87 18.55 10.81 18.49 10.76 18.42C10.71 18.35 10.69 18.27 10.69 18.19C10.69 18.08 10.73 17.97 10.81 17.9C10.89 17.82 11 17.77 11.11 17.77C11.19 17.77 11.27 17.8 11.34 17.84Z" stroke="#FFFFFF" stroke-opacity="1.000000" stroke-width="3.899050" stroke-linejoin="round"/>
		<path id="Vector" d="M19.7 17.84C19.76 17.89 19.82 17.95 19.85 18.03C19.88 18.11 19.89 18.19 19.87 18.27C19.86 18.35 19.82 18.43 19.76 18.49C19.7 18.54 19.63 18.58 19.54 18.6C19.46 18.62 19.38 18.61 19.3 18.58C19.23 18.55 19.16 18.49 19.12 18.42C19.07 18.35 19.05 18.27 19.05 18.19C19.05 18.08 19.09 17.97 19.17 17.9C19.25 17.82 19.35 17.77 19.46 17.77C19.55 17.77 19.63 17.8 19.7 17.84Z" stroke="#FFFFFF" stroke-opacity="1.000000" stroke-width="3.899050" stroke-linejoin="round"/>
		<path id="Vector" d="M22.02 24.88C21.4 26.13 20.44 27.19 19.25 27.93C18.06 28.67 16.69 29.06 15.28 29.06C13.88 29.06 12.51 28.67 11.32 27.93C10.13 27.19 9.17 26.13 8.54 24.88" stroke="#FFFFFF" stroke-opacity="1.000000" stroke-width="2.785040" stroke-linejoin="round" stroke-linecap="round"/>
	</g>
</svg>
